<svg version="1.1" id="Layer_1" xmlns="http://www.w3.org/2000/svg" xmlns:xlink="http://www.w3.org/1999/xlink" x="0px" y="0px"
	 width="100%" viewBox="0 0 512 512" enable-background="new 0 0 512 512" xml:space="preserve">
<path fill="#000000" opacity="1.000000" stroke="none" 
	d="
M1.000000,368.000000 
	C1.000000,245.708908 1.000000,123.417816 1.000000,1.063361 
	C171.565475,1.063361 342.130981,1.063361 513.000000,1.063361 
	C513.000000,123.023155 513.000000,245.046570 512.580688,367.512787 
	C509.878754,367.637482 507.596802,367.048767 505.313354,367.042786 
	C480.150482,366.976685 454.987335,367.005463 429.824280,366.990479 
	C428.341217,366.989594 426.858246,366.833801 423.913391,366.667572 
	C428.029449,365.080566 430.610992,363.934784 433.285431,363.079529 
	C446.494720,358.855316 453.350586,348.793732 451.863800,336.022583 
	C451.258881,330.826111 449.522552,325.677185 447.721069,320.717285 
	C429.874695,271.582581 411.872437,222.504547 393.985382,173.384583 
	C382.564972,142.022644 371.406891,110.564049 359.766663,79.284431 
	C357.868622,74.183998 354.884430,68.934471 350.987579,65.250221 
	C343.641144,58.304638 334.475464,57.391815 324.961700,60.881111 
	C310.837128,66.061485 296.712311,71.241089 282.392578,76.492538 
	C281.915314,75.447746 281.389099,74.427261 280.972626,73.363792 
	C276.575073,62.134220 269.028961,57.003674 256.862946,57.001568 
	C245.864517,56.999668 234.856339,57.288532 223.870544,56.915970 
	C213.955261,56.579712 204.538834,57.192188 198.361176,63.959549 
	C191.587402,61.385700 185.911407,57.648670 180.036591,57.304390 
	C164.757935,56.409004 149.389038,56.827209 134.062103,57.081142 
	C126.888992,57.199993 121.058273,60.554089 116.757225,66.424644 
	C113.395447,71.013184 111.813431,76.013962 111.933952,81.789482 
	C112.165054,92.864586 112.001175,103.947922 112.001175,116.103622 
	C103.790146,110.634048 95.500900,112.115448 87.437607,112.028297 
	C77.106956,111.916634 66.774185,111.995728 56.442333,112.002556 
	C41.984360,112.012123 32.004505,121.968987 32.003330,136.406281 
	C31.998327,197.897476 31.791910,259.389893 32.149208,320.879028 
	C32.237858,336.135345 29.278107,351.678223 35.209030,367.001221 
	C31.312469,367.001221 27.825493,366.901672 24.346073,367.021515 
	C16.562050,367.289642 8.781792,367.667084 1.000000,368.000000 
z"/>
<path fill="#000000" opacity="1.000000" stroke="none" 
	d="
M513.000000,416.000000 
	C513.000000,448.313263 513.000000,480.626556 513.000000,512.939392 
	C342.333313,512.938965 171.666656,512.938965 1.000000,512.938965 
	C1.000000,480.897766 1.000000,448.917542 1.419273,416.490814 
	C4.120155,416.362457 6.400741,416.947968 8.683533,416.956696 
	C28.002283,417.030579 47.322338,417.097382 66.639732,416.919800 
	C70.692497,416.882568 72.214218,417.964722 72.088326,422.217987 
	C71.807587,431.702637 72.107925,441.203033 71.955597,450.693542 
	C71.884956,455.094757 73.530472,457.093109 78.092850,457.044037 
	C90.748672,456.907776 103.407471,456.929779 116.063911,457.033997 
	C120.311592,457.068970 122.085350,455.267273 122.033928,451.036957 
	C121.916519,441.378876 122.156128,431.714569 121.922981,422.060730 
	C121.828529,418.149719 123.038437,416.847595 127.017891,416.918182 
	C139.504700,417.139740 151.997940,416.998840 164.488693,416.998840 
	C237.767776,416.998718 311.046844,416.993561 384.325928,417.005737 
	C392.864868,417.007172 391.959595,416.287140 391.993896,424.897217 
	C392.027740,433.390808 392.135956,441.887573 391.948029,450.377136 
	C391.846680,454.955688 393.410370,457.122040 398.276794,457.054840 
	C410.765167,456.882385 423.258484,456.908020 435.747742,457.045044 
	C440.188843,457.093781 442.119507,455.377350 442.044037,450.852966 
	C441.888489,441.529175 442.205017,432.194336 441.909271,422.877319 
	C441.767670,418.415375 442.952881,416.823975 447.701263,416.890015 
	C466.683502,417.154083 485.671814,417.039368 504.657349,416.954315 
	C507.439636,416.941864 510.219177,416.332916 513.000000,416.000000 
z"/>
<path fill="#4D241A" opacity="1.000000" stroke="none" 
	d="
M513.000000,415.531342 
	C510.219177,416.332916 507.439636,416.941864 504.657349,416.954315 
	C485.671814,417.039368 466.683502,417.154083 447.701263,416.890015 
	C442.952881,416.823975 441.767670,418.415375 441.909271,422.877319 
	C442.205017,432.194336 441.888489,441.529175 442.044037,450.852966 
	C442.119507,455.377350 440.188843,457.093781 435.747742,457.045044 
	C423.258484,456.908020 410.765167,456.882385 398.276794,457.054840 
	C393.410370,457.122040 391.846680,454.955688 391.948029,450.377136 
	C392.135956,441.887573 392.027740,433.390808 391.993896,424.897217 
	C391.959595,416.287140 392.864868,417.007172 384.325928,417.005737 
	C311.046844,416.993561 237.767776,416.998718 164.488693,416.998840 
	C151.997940,416.998840 139.504700,417.139740 127.017891,416.918182 
	C123.038437,416.847595 121.828529,418.149719 121.922981,422.060730 
	C122.156128,431.714569 121.916519,441.378876 122.033928,451.036957 
	C122.085350,455.267273 120.311592,457.068970 116.063911,457.033997 
	C103.407471,456.929779 90.748672,456.907776 78.092850,457.044037 
	C73.530472,457.093109 71.884956,455.094757 71.955597,450.693542 
	C72.107925,441.203033 71.807587,431.702637 72.088326,422.217987 
	C72.214218,417.964722 70.692497,416.882568 66.639732,416.919800 
	C47.322338,417.097382 28.002283,417.030579 8.683533,416.956696 
	C6.400741,416.947968 4.120155,416.362457 1.419273,416.022156 
	C1.000000,400.312439 1.000000,384.624878 1.000000,368.468658 
	C8.781792,367.667084 16.562050,367.289642 24.346073,367.021515 
	C27.825493,366.901672 31.312469,367.001221 35.209030,367.001221 
	C29.278107,351.678223 32.237858,336.135345 32.149208,320.879028 
	C31.791910,259.389893 31.998327,197.897476 32.003330,136.406281 
	C32.004505,121.968987 41.984360,112.012123 56.442333,112.002556 
	C66.774185,111.995728 77.106956,111.916634 87.437607,112.028297 
	C95.500900,112.115448 103.790146,110.634048 112.001175,116.103622 
	C112.001175,103.947922 112.165054,92.864586 111.933952,81.789482 
	C111.813431,76.013962 113.395447,71.013184 116.757225,66.424644 
	C121.058273,60.554089 126.888992,57.199993 134.062103,57.081142 
	C149.389038,56.827209 164.757935,56.409004 180.036591,57.304390 
	C185.911407,57.648670 191.587402,61.385700 198.361176,63.959549 
	C204.538834,57.192188 213.955261,56.579712 223.870544,56.915970 
	C234.856339,57.288532 245.864517,56.999668 256.862946,57.001568 
	C269.028961,57.003674 276.575073,62.134220 280.972626,73.363792 
	C281.389099,74.427261 281.915314,75.447746 282.392578,76.492538 
	C296.712311,71.241089 310.837128,66.061485 324.961700,60.881111 
	C334.475464,57.391815 343.641144,58.304638 350.987579,65.250221 
	C354.884430,68.934471 357.868622,74.183998 359.766663,79.284431 
	C371.406891,110.564049 382.564972,142.022644 393.985382,173.384583 
	C411.872437,222.504547 429.874695,271.582581 447.721069,320.717285 
	C449.522552,325.677185 451.258881,330.826111 451.863800,336.022583 
	C453.350586,348.793732 446.494720,358.855316 433.285431,363.079529 
	C430.610992,363.934784 428.029449,365.080566 423.913391,366.667572 
	C426.858246,366.833801 428.341217,366.989594 429.824280,366.990479 
	C454.987335,367.005463 480.150482,366.976685 505.313354,367.042786 
	C507.596802,367.048767 509.878754,367.637482 512.580688,367.977783 
	C513.000000,383.687561 513.000000,399.375122 513.000000,415.531342 
M156.062088,282.023468 
	C144.812622,282.023468 133.563156,282.023468 122.316978,282.023468 
	C122.316978,292.302826 122.316978,302.016815 122.316978,311.833405 
	C134.084335,311.833405 145.536301,311.833405 157.917465,311.973724 
	C169.165878,311.973724 180.414291,311.973724 191.670181,311.973724 
	C191.670181,301.693451 191.670181,291.984283 191.670181,282.166595 
	C179.890717,282.166595 168.439453,282.166595 156.062088,282.023468 
M329.157990,129.207291 
	C318.433502,133.100632 307.709015,136.993973 296.729645,140.979843 
	C300.287567,150.673355 303.632202,159.785843 307.117096,169.280472 
	C318.159393,165.127960 328.695160,161.165939 339.979767,157.126678 
	C350.687012,153.256439 361.394257,149.386200 372.515198,145.366440 
	C368.968567,135.699768 365.644470,126.639519 362.151245,117.118401 
	C350.958160,121.300621 340.416046,125.239601 329.157990,129.207291 
M395.033783,307.306824 
	C405.637421,303.475067 416.241028,299.643341 427.206665,295.680786 
	C423.729340,286.174591 420.398529,277.069092 416.860168,267.396118 
	C405.541290,271.644745 394.715057,275.708435 383.126068,279.859222 
	C372.705078,283.602936 362.284058,287.346649 351.445312,291.240448 
	C354.946442,300.838379 358.261261,309.925598 361.766998,319.536255 
	C372.914642,315.399078 383.604034,311.431976 395.033783,307.306824 
M156.062363,122.023468 
	C144.812805,122.023468 133.563248,122.023468 122.317078,122.023468 
	C122.317078,132.302887 122.317078,142.016922 122.317078,151.833420 
	C134.084641,151.833420 145.536743,151.833420 157.917908,151.973663 
	C164.209610,151.973663 170.501297,151.973663 176.823334,151.973663 
	C176.948425,153.964981 177.041748,155.450775 177.046936,157.802811 
	C177.435135,161.007629 176.074890,162.170364 172.823532,162.060883 
	C167.538864,161.882874 162.240753,162.103912 156.024063,162.042023 
	C144.786804,162.042023 133.549561,162.042023 122.317505,162.042023 
	C122.317505,199.048203 122.317505,235.259811 122.317505,271.843506 
	C134.069077,271.843506 145.508652,271.843506 157.887054,271.945160 
	C167.700653,271.962799 177.515884,271.885468 187.326950,272.051880 
	C190.564301,272.106750 192.083282,271.429504 192.067123,267.712097 
	C191.906738,230.787354 191.908768,193.861893 191.978592,156.010300 
	C191.978592,144.766022 191.978592,133.521744 191.978592,122.166595 
	C179.895981,122.166595 168.442474,122.166595 156.062363,122.023468 
M157.886581,111.947746 
	C167.858246,111.964149 177.830597,111.921616 187.801163,112.035049 
	C190.573700,112.066597 192.113632,111.522339 192.051590,108.242455 
	C191.881897,99.270882 192.181427,90.288353 191.917664,81.321266 
	C191.685959,73.444176 185.319138,67.273590 177.381317,67.062767 
	C170.575348,66.881996 163.758591,67.108437 156.022217,67.041687 
	C149.710770,67.030144 143.397034,66.906898 137.088470,67.035873 
	C129.526398,67.190475 122.882423,72.103737 122.400917,79.357277 
	C121.691872,90.038322 122.217987,100.801369 122.217987,111.845177 
	C134.103760,111.845177 145.525253,111.845177 157.886581,111.947746 
M156.022171,322.041687 
	C144.803177,322.041687 133.584167,322.041687 122.077164,322.041687 
	C122.077164,333.051971 121.744644,343.339508 122.188637,353.593445 
	C122.509460,361.002625 128.954391,366.703766 136.527725,366.927429 
	C143.327332,367.128204 150.139893,366.889832 157.886551,366.947754 
	C164.201324,366.962982 170.518372,367.091583 176.830338,366.965668 
	C185.337982,366.795929 191.757935,360.614288 191.945114,352.227478 
	C192.141586,343.424011 191.885315,334.610779 192.051880,325.806091 
	C192.112976,322.577393 190.676254,321.921875 187.850113,321.963379 
	C177.550217,322.114624 167.247940,322.104248 156.022171,322.041687 
M326.913910,119.075455 
	C337.492279,115.327934 348.070648,111.580414 359.003143,107.707443 
	C355.257050,97.562935 352.016968,87.983269 348.177368,78.650223 
	C345.196136,71.403641 338.149567,68.133110 330.519196,70.416855 
	C323.871399,72.406525 317.470490,75.221031 310.188263,77.796906 
	C303.924561,80.007561 297.570404,81.994881 291.420319,84.486046 
	C283.926270,87.521576 280.307831,95.290596 282.834961,102.899986 
	C285.661774,111.411896 288.771820,119.835869 292.041748,128.187256 
	C292.483887,129.316467 294.910553,130.764084 295.847931,130.435745 
	C306.020874,126.872665 316.079803,122.984100 326.913910,119.075455 
M413.806580,359.005768 
	C420.047455,356.740814 426.367249,354.668945 432.507843,352.158630 
	C439.118561,349.456085 443.472412,342.937347 441.703827,336.751801 
	C438.662933,326.116699 434.602173,315.773224 430.807159,304.839569 
	C419.373352,309.115967 408.666107,313.120605 397.234589,317.193787 
	C386.544891,321.101227 375.855194,325.008667 364.905548,329.011108 
	C368.656342,339.203156 371.918762,348.788300 375.719421,358.155060 
	C378.484009,364.968353 386.130829,368.604492 393.003723,366.458740 
	C399.794434,364.338623 406.379089,361.558563 413.806580,359.005768 
M343.199463,166.930908 
	C333.960388,170.195938 324.791748,173.684738 315.450684,176.625885 
	C311.166656,177.974762 310.520660,179.793076 312.025726,183.829361 
	C319.458221,203.761963 326.650421,223.784180 333.926453,243.775116 
	C338.019287,255.020203 342.008240,266.305420 346.325195,277.463806 
	C346.895630,278.938202 349.576050,281.033997 350.532501,280.700439 
	C360.863403,277.097992 371.044678,273.066315 382.014404,269.108612 
	C390.480804,266.153870 398.876923,262.971069 407.440582,260.331879 
	C412.396667,258.804474 413.410583,256.722321 411.514771,251.731705 
	C404.311615,232.769669 397.586700,213.626328 390.640656,194.566193 
	C386.256836,182.536911 381.877838,170.504044 377.254913,158.566406 
	C376.766449,157.304962 374.269562,155.595108 373.341003,155.918900 
	C363.477936,159.357971 353.743744,163.166656 343.199463,166.930908 
M77.885880,366.940369 
	C83.546684,366.959869 89.207527,367.002808 94.868286,366.993958 
	C106.118912,366.976379 111.992096,361.044495 111.995209,349.671875 
	C112.005295,312.874603 111.999245,276.077332 111.999252,239.280060 
	C111.999260,205.979355 112.005547,172.678665 111.995415,139.377960 
	C111.991890,127.782448 106.144661,122.001984 94.423416,122.008400 
	C88.597206,122.011589 82.771057,122.093613 76.020485,122.044746 
	C70.354332,122.030258 64.688103,121.991158 59.022030,122.006516 
	C48.007561,122.036377 42.015491,127.990540 42.007595,138.967484 
	C41.988289,165.799179 42.000820,192.630890 42.000893,219.462601 
	C42.001011,263.126617 41.987675,306.790619 42.011761,350.454651 
	C42.017483,360.826416 48.120476,366.941254 58.451443,366.984924 
	C64.615608,367.010956 70.780342,366.906067 77.885880,366.940369 
M236.032227,67.042915 
	C230.873001,67.028320 225.713791,67.001335 220.554565,67.001541 
	C207.518112,67.002068 202.000900,72.469559 202.000458,85.397461 
	C201.997787,163.122208 201.998932,240.846970 201.999268,318.571716 
	C201.999313,329.556366 201.912857,340.541962 202.031189,351.525360 
	C202.129028,360.608795 208.397034,366.842590 217.493027,366.969086 
	C223.979523,367.059296 230.469559,366.895111 237.895660,366.945465 
	C243.223480,366.963806 248.551315,366.998627 253.879135,366.997192 
	C266.425049,366.993805 271.998871,361.349609 271.999207,348.646332 
	C272.001709,260.898926 272.000549,173.151489 272.000214,85.404076 
	C272.000183,84.238556 272.032562,83.071564 271.986542,81.907761 
	C271.653839,73.490677 265.396057,67.194466 256.931519,67.040085 
	C250.276611,66.918709 243.616074,67.105606 236.032227,67.042915 
M289.999542,371.149261 
	C289.464722,367.220093 291.843964,366.955475 294.883362,366.964813 
	C317.208008,367.033295 339.532959,367.008942 361.857819,366.987579 
	C363.740417,366.985779 365.622803,366.791901 367.577148,366.683289 
	C339.205292,288.780762 311.065033,211.514160 282.924774,134.247574 
	C282.616089,134.303543 282.307434,134.359512 281.998779,134.415482 
	C281.998779,136.156769 281.998749,137.898071 281.998749,139.639359 
	C281.998749,209.612823 281.885803,279.586731 282.141754,349.559235 
	C282.173767,358.305237 279.729492,365.468445 273.328278,371.929688 
	C264.202423,377.646332 254.032822,377.050262 243.871292,377.040436 
	C168.215240,376.967468 92.559097,377.000854 16.902975,377.000854 
	C14.990450,377.000854 13.077925,377.000854 11.279896,377.000854 
	C11.279896,387.394897 11.279896,396.996704 11.279896,406.682129 
	C175.261917,406.682129 338.964783,406.682129 502.621307,406.682129 
	C502.621307,396.640320 502.621307,386.920319 502.621307,376.817627 
	C431.643860,376.817627 361.043488,376.817627 290.328003,376.817627 
	C290.197723,374.957886 290.094238,373.481049 289.999542,371.149261 
M91.541603,417.000916 
	C88.455498,417.000916 85.369385,417.000916 82.403076,417.000916 
	C82.403076,427.411987 82.403076,437.104462 82.403076,446.728210 
	C92.380577,446.728210 101.953773,446.728210 111.683273,446.728210 
	C111.683273,436.765350 111.683273,427.075623 111.683273,417.000916 
	C105.090965,417.000916 98.809654,417.000916 91.541603,417.000916 
M413.520203,446.999084 
	C419.593384,446.999084 425.666565,446.999084 431.586426,446.999084 
	C431.586426,436.565796 431.586426,426.873138 431.586426,417.281860 
	C421.598236,417.281860 412.024902,417.281860 402.326355,417.281860 
	C402.326355,427.255249 402.326355,436.944916 402.326355,446.999084 
	C405.941162,446.999084 409.234741,446.999084 413.520203,446.999084 
z"/>
<path fill="#FFC96F" opacity="1.000000" stroke="none" 
	d="
M289.990784,372.004181 
	C290.094238,373.481049 290.197723,374.957886 290.328003,376.817627 
	C361.043488,376.817627 431.643860,376.817627 502.621307,376.817627 
	C502.621307,386.920319 502.621307,396.640320 502.621307,406.682129 
	C338.964783,406.682129 175.261917,406.682129 11.279896,406.682129 
	C11.279896,396.996704 11.279896,387.394897 11.279896,377.000854 
	C13.077925,377.000854 14.990450,377.000854 16.902975,377.000854 
	C92.559097,377.000854 168.215240,376.967468 243.871292,377.040436 
	C254.032822,377.050262 264.202423,377.646332 274.158295,371.954712 
	C279.989136,371.987885 284.989960,371.996033 289.990784,372.004181 
z"/>
<path fill="#000000" opacity="1.000000" stroke="none" 
	d="
M289.995178,371.576721 
	C284.989960,371.996033 279.989136,371.987885 274.532928,371.897339 
	C279.729492,365.468445 282.173767,358.305237 282.141754,349.559235 
	C281.885803,279.586731 281.998749,209.612823 281.998749,139.639359 
	C281.998749,137.898071 281.998779,136.156769 281.998779,134.415482 
	C282.307434,134.359512 282.616089,134.303543 282.924774,134.247574 
	C311.065033,211.514160 339.205292,288.780762 367.577148,366.683289 
	C365.622803,366.791901 363.740417,366.985779 361.857819,366.987579 
	C339.532959,367.008942 317.208008,367.033295 294.883362,366.964813 
	C291.843964,366.955475 289.464722,367.220093 289.995178,371.576721 
z"/>
<path fill="#C12945" opacity="1.000000" stroke="none" 
	d="
M236.958023,67.155563 
	C243.616074,67.105606 250.276611,66.918709 256.931519,67.040085 
	C265.396057,67.194466 271.653839,73.490677 271.986542,81.907761 
	C272.032562,83.071564 272.000183,84.238556 272.000214,85.404076 
	C272.000549,173.151489 272.001709,260.898926 271.999207,348.646332 
	C271.998871,361.349609 266.425049,366.993805 253.879135,366.997192 
	C248.551315,366.998627 243.223480,366.963806 237.439026,366.437988 
	C236.974136,356.340637 236.965897,346.750702 237.366241,337.107727 
	C249.487671,335.669861 257.066284,327.699982 257.000580,316.836334 
	C256.934357,305.885162 249.122009,298.090729 236.969727,296.386414 
	C236.973587,291.675781 236.965591,287.418304 237.325958,283.095001 
	C240.772903,280.701630 244.925781,278.988556 246.687729,275.907990 
	C249.603989,270.809174 251.614029,264.969696 252.892136,259.195740 
	C257.788116,237.077774 258.407227,214.612656 255.646301,192.239807 
	C254.297897,181.313187 250.994965,170.564117 247.844589,159.952026 
	C246.401062,155.089447 242.600342,151.471863 236.969360,150.386047 
	C236.973450,145.675537 236.965546,141.418167 237.366241,137.107727 
	C249.487686,135.669846 257.066315,127.699936 257.000580,116.836311 
	C256.934326,105.885132 249.122131,98.090858 236.969818,96.381119 
	C236.973846,86.333633 236.965942,76.744598 236.958023,67.155563 
z"/>
<path fill="#D74861" opacity="1.000000" stroke="none" 
	d="
M236.957596,283.160858 
	C236.965591,287.418304 236.973587,291.675781 236.568222,296.445496 
	C224.572052,298.440216 217.043167,306.281189 217.001541,316.904999 
	C216.958511,327.885956 224.695892,335.739532 236.957642,337.160797 
	C236.965897,346.750702 236.974136,356.340637 236.970184,366.387512 
	C230.469559,366.895111 223.979523,367.059296 217.493027,366.969086 
	C208.397034,366.842590 202.129028,360.608795 202.031189,351.525360 
	C201.912857,340.541962 201.999313,329.556366 201.999268,318.571716 
	C201.998932,240.846970 201.997787,163.122208 202.000458,85.397461 
	C202.000900,72.469559 207.518112,67.002068 220.554565,67.001541 
	C225.713791,67.001335 230.873001,67.028320 236.495117,67.099243 
	C236.965942,76.744598 236.973846,86.333633 236.568298,96.440216 
	C224.572144,98.440086 217.043167,106.281158 217.001541,116.904999 
	C216.958511,127.885925 224.696045,135.739639 236.957642,137.160797 
	C236.965546,141.418167 236.973450,145.675537 236.606995,150.457565 
	C233.167343,153.309875 229.028427,155.026840 227.278809,158.102844 
	C224.378189,163.202454 222.401047,169.039307 221.112305,174.806335 
	C216.098587,197.242432 215.691467,220.024643 218.455078,242.709534 
	C219.745071,253.298370 223.022324,263.711182 226.126480,273.983887 
	C227.590759,278.829651 231.323715,282.490112 236.957596,283.160858 
z"/>
<path fill="#2B6E38" opacity="1.000000" stroke="none" 
	d="
M76.944878,122.139969 
	C82.771057,122.093613 88.597206,122.011589 94.423416,122.008400 
	C106.144661,122.001984 111.991890,127.782448 111.995415,139.377960 
	C112.005547,172.678665 111.999260,205.979355 111.999252,239.280060 
	C111.999245,276.077332 112.005295,312.874603 111.995209,349.671875 
	C111.992096,361.044495 106.118912,366.976379 94.868286,366.993958 
	C89.207527,367.002808 83.546684,366.959869 77.431816,366.443787 
	C76.968056,356.343964 76.958366,346.740692 77.418762,337.094421 
	C81.388161,337.034241 84.887466,337.014893 88.386780,337.000244 
	C95.884682,336.968842 96.994873,335.865692 96.996277,328.266815 
	C97.003807,287.438446 96.999954,246.610062 96.999985,205.781693 
	C96.999992,190.783524 97.007698,175.785339 96.996567,160.787170 
	C96.990883,153.122604 95.913589,152.041733 88.442627,151.996277 
	C84.611183,151.972977 80.779984,151.908493 76.962524,151.402786 
	C76.965881,141.341949 76.955376,131.740967 76.944878,122.139969 
z"/>
<path fill="#399349" opacity="1.000000" stroke="none" 
	d="
M76.948669,337.137390 
	C76.958366,346.740692 76.968056,356.343964 76.961288,366.403625 
	C70.780342,366.906067 64.615608,367.010956 58.451443,366.984924 
	C48.120476,366.941254 42.017483,360.826416 42.011761,350.454651 
	C41.987675,306.790619 42.001011,263.126617 42.000893,219.462601 
	C42.000820,192.630890 41.988289,165.799179 42.007595,138.967484 
	C42.015491,127.990540 48.007561,122.036377 59.022030,122.006516 
	C64.688103,121.991158 70.354332,122.030258 76.482681,122.092361 
	C76.955376,131.740967 76.965881,141.341949 76.500923,151.449921 
	C72.528229,151.971405 69.030998,151.987091 65.533752,152.000168 
	C58.050846,152.028168 57.003765,153.086639 57.003067,160.773087 
	C56.998016,216.565536 57.000278,272.358002 57.000969,328.150452 
	C57.000980,329.149689 56.994453,330.149261 57.017914,331.148071 
	C57.108765,335.015503 59.129810,336.937195 62.964329,336.986450 
	C67.625656,337.046265 72.287216,337.087891 76.948669,337.137390 
z"/>
<path fill="#275E87" opacity="1.000000" stroke="none" 
	d="
M156.948318,162.156509 
	C162.240753,162.103912 167.538864,161.882874 172.823532,162.060883 
	C176.074890,162.170364 177.435135,161.007629 177.546326,157.391342 
	C182.652100,156.965469 187.258484,156.951065 191.864883,156.936646 
	C191.908768,193.861893 191.906738,230.787354 192.067123,267.712097 
	C192.083282,271.429504 190.564301,272.106750 187.326950,272.051880 
	C177.515884,271.885468 167.700653,271.962799 157.431946,271.437134 
	C156.967331,234.671570 156.957825,198.414047 156.948318,162.156509 
z"/>
<path fill="#399249" opacity="1.000000" stroke="none" 
	d="
M381.266815,269.151947 
	C371.044678,273.066315 360.863403,277.097992 350.532501,280.700439 
	C349.576050,281.033997 346.895630,278.938202 346.325195,277.463806 
	C342.008240,266.305420 338.019287,255.020203 333.926453,243.775116 
	C326.650421,223.784180 319.458221,203.761963 312.025726,183.829361 
	C310.520660,179.793076 311.166656,177.974762 315.450684,176.625885 
	C324.791748,173.684738 333.960388,170.195938 343.604614,167.302216 
	C344.342773,168.957443 344.574310,170.278122 345.023834,171.519852 
	C353.570343,195.128708 362.077240,218.752274 370.742615,242.317535 
	C374.057831,251.333252 377.747681,260.211212 381.266815,269.151947 
z"/>
<path fill="#3279AF" opacity="1.000000" stroke="none" 
	d="
M156.486191,162.099274 
	C156.957825,198.414047 156.967331,234.671570 156.962524,271.386292 
	C145.508652,271.843506 134.069077,271.843506 122.317505,271.843506 
	C122.317505,235.259811 122.317505,199.048203 122.317505,162.042023 
	C133.549561,162.042023 144.786804,162.042023 156.486191,162.099274 
z"/>
<path fill="#2B6E38" opacity="1.000000" stroke="none" 
	d="
M381.640625,269.130280 
	C377.747681,260.211212 374.057831,251.333252 370.742615,242.317535 
	C362.077240,218.752274 353.570343,195.128708 345.023834,171.519852 
	C344.574310,170.278122 344.342773,168.957443 343.991943,167.273575 
	C353.743744,163.166656 363.477936,159.357971 373.341003,155.918900 
	C374.269562,155.595108 376.766449,157.304962 377.254913,158.566406 
	C381.877838,170.504044 386.256836,182.536911 390.640656,194.566193 
	C397.586700,213.626328 404.311615,232.769669 411.514771,251.731705 
	C413.410583,256.722321 412.396667,258.804474 407.440582,260.331879 
	C398.876923,262.971069 390.480804,266.153870 381.640625,269.130280 
z"/>
<path fill="#399249" opacity="1.000000" stroke="none" 
	d="
M413.054108,359.067993 
	C406.379089,361.558563 399.794434,364.338623 393.003723,366.458740 
	C386.130829,368.604492 378.484009,364.968353 375.719421,358.155060 
	C371.918762,348.788300 368.656342,339.203156 364.905548,329.011108 
	C375.855194,325.008667 386.544891,321.101227 397.677765,317.509033 
	C403.098663,331.572144 408.076385,345.320068 413.054108,359.067993 
z"/>
<path fill="#399249" opacity="1.000000" stroke="none" 
	d="
M326.169861,119.184303 
	C316.079803,122.984100 306.020874,126.872665 295.847931,130.435745 
	C294.910553,130.764084 292.483887,129.316467 292.041748,128.187256 
	C288.771820,119.835869 285.661774,111.411896 282.834961,102.899986 
	C280.307831,95.290596 283.926270,87.521576 291.420319,84.486046 
	C297.570404,81.994881 303.924561,80.007561 310.701111,78.109985 
	C316.199280,92.010147 321.184570,105.597221 326.169861,119.184303 
z"/>
<path fill="#3279AF" opacity="1.000000" stroke="none" 
	d="
M156.946747,366.845215 
	C150.139893,366.889832 143.327332,367.128204 136.527725,366.927429 
	C128.954391,366.703766 122.509460,361.002625 122.188637,353.593445 
	C121.744644,343.339508 122.077164,333.051971 122.077164,322.041687 
	C133.584167,322.041687 144.803177,322.041687 156.499573,322.555481 
	C156.966904,337.661224 156.956833,352.253235 156.946747,366.845215 
z"/>
<path fill="#275E87" opacity="1.000000" stroke="none" 
	d="
M157.416656,366.896484 
	C156.956833,352.253235 156.966904,337.661224 156.961777,322.612000 
	C167.247940,322.104248 177.550217,322.114624 187.850113,321.963379 
	C190.676254,321.921875 192.112976,322.577393 192.051880,325.806091 
	C191.885315,334.610779 192.141586,343.424011 191.945114,352.227478 
	C191.757935,360.614288 185.337982,366.795929 176.830338,366.965668 
	C170.518372,367.091583 164.201324,366.962982 157.416656,366.896484 
z"/>
<path fill="#2B6D38" opacity="1.000000" stroke="none" 
	d="
M413.430359,359.036865 
	C408.076385,345.320068 403.098663,331.572144 398.039917,317.474731 
	C408.666107,313.120605 419.373352,309.115967 430.807159,304.839569 
	C434.602173,315.773224 438.662933,326.116699 441.703827,336.751801 
	C443.472412,342.937347 439.118561,349.456085 432.507843,352.158630 
	C426.367249,354.668945 420.047455,356.740814 413.430359,359.036865 
z"/>
<path fill="#3279AF" opacity="1.000000" stroke="none" 
	d="
M156.946777,111.845177 
	C145.525253,111.845177 134.103760,111.845177 122.217987,111.845177 
	C122.217987,100.801369 121.691872,90.038322 122.400917,79.357277 
	C122.882423,72.103737 129.526398,67.190475 137.088470,67.035873 
	C143.397034,66.906898 149.710770,67.030144 156.499603,67.555481 
	C156.966919,82.661240 156.956848,97.253212 156.946777,111.845177 
z"/>
<path fill="#275E87" opacity="1.000000" stroke="none" 
	d="
M157.416687,111.896461 
	C156.956848,97.253212 156.966919,82.661240 156.961792,67.612030 
	C163.758591,67.108437 170.575348,66.881996 177.381317,67.062767 
	C185.319138,67.273590 191.685959,73.444176 191.917664,81.321266 
	C192.181427,90.288353 191.881897,99.270882 192.051590,108.242455 
	C192.113632,111.522339 190.573700,112.066597 187.801163,112.035049 
	C177.830597,111.921616 167.858246,111.964149 157.416687,111.896461 
z"/>
<path fill="#2B6D38" opacity="1.000000" stroke="none" 
	d="
M326.541870,119.129875 
	C321.184570,105.597221 316.199280,92.010147 311.087219,78.047066 
	C317.470490,75.221031 323.871399,72.406525 330.519196,70.416855 
	C338.149567,68.133110 345.196136,71.403641 348.177368,78.650223 
	C352.016968,87.983269 355.257050,97.562935 359.003143,107.707443 
	C348.070648,111.580414 337.492279,115.327934 326.541870,119.129875 
z"/>
<path fill="#69BDFB" opacity="1.000000" stroke="none" 
	d="
M191.921738,156.473480 
	C187.258484,156.951065 182.652100,156.965469 177.590393,156.958221 
	C177.041748,155.450775 176.948425,153.964981 176.823334,151.973663 
	C170.501297,151.973663 164.209610,151.973663 157.456100,151.445602 
	C156.992523,141.333893 156.990738,131.750244 156.988953,122.166595 
	C168.442474,122.166595 179.895981,122.166595 191.978592,122.166595 
	C191.978592,133.521744 191.978592,144.766022 191.921738,156.473480 
z"/>
<path fill="#FDC76E" opacity="1.000000" stroke="none" 
	d="
M394.293457,307.464844 
	C383.604034,311.431976 372.914642,315.399078 361.766998,319.536255 
	C358.261261,309.925598 354.946442,300.838379 351.445312,291.240448 
	C362.284058,287.346649 372.705078,283.602936 383.742432,280.098267 
	C387.670319,289.379822 390.981873,298.422333 394.293457,307.464844 
z"/>
<path fill="#FDB134" opacity="1.000000" stroke="none" 
	d="
M329.873932,129.178589 
	C340.416046,125.239601 350.958160,121.300621 362.151245,117.118401 
	C365.644470,126.639519 368.968567,135.699768 372.515198,145.366440 
	C361.394257,149.386200 350.687012,153.256439 339.538208,156.771133 
	C336.022400,147.336594 332.948181,138.257584 329.873932,129.178589 
z"/>
<path fill="#FDC76E" opacity="1.000000" stroke="none" 
	d="
M329.515961,129.192932 
	C332.948181,138.257584 336.022400,147.336594 339.163757,156.809753 
	C328.695160,161.165939 318.159393,165.127960 307.117096,169.280472 
	C303.632202,159.785843 300.287567,150.673355 296.729645,140.979843 
	C307.709015,136.993973 318.433502,133.100632 329.515961,129.192932 
z"/>
<path fill="#9CD3FC" opacity="1.000000" stroke="none" 
	d="
M156.988281,311.833405 
	C145.536301,311.833405 134.084335,311.833405 122.316978,311.833405 
	C122.316978,302.016815 122.316978,292.302826 122.316978,282.023468 
	C133.563156,282.023468 144.812622,282.023468 156.528015,282.552979 
	C156.992050,292.666107 156.990173,302.249756 156.988281,311.833405 
z"/>
<path fill="#69BDFB" opacity="1.000000" stroke="none" 
	d="
M157.452881,311.903564 
	C156.990173,302.249756 156.992050,292.666107 156.991058,282.624512 
	C168.439453,282.166595 179.890717,282.166595 191.670181,282.166595 
	C191.670181,291.984283 191.670181,301.693451 191.670181,311.973724 
	C180.414291,311.973724 169.165878,311.973724 157.452881,311.903564 
z"/>
<path fill="#9CD3FC" opacity="1.000000" stroke="none" 
	d="
M156.525665,122.095032 
	C156.990738,131.750244 156.992523,141.333893 156.991577,151.375488 
	C145.536743,151.833420 134.084641,151.833420 122.317078,151.833420 
	C122.317078,142.016922 122.317078,132.302887 122.317078,122.023468 
	C133.563248,122.023468 144.812805,122.023468 156.525665,122.095032 
z"/>
<path fill="#FDB134" opacity="1.000000" stroke="none" 
	d="
M394.663635,307.385864 
	C390.981873,298.422333 387.670319,289.379822 384.123779,280.054718 
	C394.715057,275.708435 405.541290,271.644745 416.860168,267.396118 
	C420.398529,277.069092 423.729340,286.174591 427.206665,295.680786 
	C416.241028,299.643341 405.637421,303.475067 394.663635,307.385864 
z"/>
<path fill="#FFB234" opacity="1.000000" stroke="none" 
	d="
M92.034973,417.000916 
	C98.809654,417.000916 105.090965,417.000916 111.683273,417.000916 
	C111.683273,427.075623 111.683273,436.765350 111.683273,446.728210 
	C101.953773,446.728210 92.380577,446.728210 82.403076,446.728210 
	C82.403076,437.104462 82.403076,427.411987 82.403076,417.000916 
	C85.369385,417.000916 88.455498,417.000916 92.034973,417.000916 
z"/>
<path fill="#FFB234" opacity="1.000000" stroke="none" 
	d="
M413.024261,446.999084 
	C409.234741,446.999084 405.941162,446.999084 402.326355,446.999084 
	C402.326355,436.944916 402.326355,427.255249 402.326355,417.281860 
	C412.024902,417.281860 421.598236,417.281860 431.586426,417.281860 
	C431.586426,426.873138 431.586426,436.565796 431.586426,446.999084 
	C425.666565,446.999084 419.593384,446.999084 413.024261,446.999084 
z"/>
<path fill="#50261B" opacity="1.000000" stroke="none" 
	d="
M237.325958,283.095001 
	C231.323715,282.490112 227.590759,278.829651 226.126480,273.983887 
	C223.022324,263.711182 219.745071,253.298370 218.455078,242.709534 
	C215.691467,220.024643 216.098587,197.242432 221.112305,174.806335 
	C222.401047,169.039307 224.378189,163.202454 227.278809,158.102844 
	C229.028427,155.026840 233.167343,153.309875 236.595001,150.910706 
	C242.600342,151.471863 246.401062,155.089447 247.844589,159.952026 
	C250.994965,170.564117 254.297897,181.313187 255.646301,192.239807 
	C258.407227,214.612656 257.788116,237.077774 252.892136,259.195740 
	C251.614029,264.969696 249.603989,270.809174 246.687729,275.907990 
	C244.925781,278.988556 240.772903,280.701630 237.325958,283.095001 
M237.683609,271.823090 
	C239.084335,268.655396 241.022583,265.614075 241.801895,262.300232 
	C248.917297,232.044205 248.960846,201.726044 241.725128,171.489136 
	C240.925323,168.146866 238.610580,165.167130 236.303955,162.148026 
	C234.872009,165.480530 232.907303,168.688080 232.091782,172.165146 
	C225.069458,202.105698 225.089874,232.112091 232.152664,262.035645 
	C232.978531,265.534668 235.344864,268.670166 237.683609,271.823090 
z"/>
<path fill="#51251B" opacity="1.000000" stroke="none" 
	d="
M237.366241,137.107727 
	C224.696045,135.739639 216.958511,127.885925 217.001541,116.904999 
	C217.043167,106.281158 224.572144,98.440086 236.556366,96.898666 
	C249.122131,98.090858 256.934326,105.885132 257.000580,116.836311 
	C257.066315,127.699936 249.487686,135.669846 237.366241,137.107727 
M236.241852,107.069679 
	C230.080261,108.616920 226.827301,112.255005 227.028244,117.374100 
	C227.235031,122.642220 230.872467,126.095451 237.728622,126.925133 
	C243.894974,125.400749 247.169800,121.748940 246.968124,116.622002 
	C246.760498,111.343964 243.117233,107.896904 236.241852,107.069679 
z"/>
<path fill="#51251B" opacity="1.000000" stroke="none" 
	d="
M237.366226,337.107727 
	C224.695892,335.739532 216.958511,327.885956 217.001541,316.904999 
	C217.043167,306.281189 224.572052,298.440216 236.556366,296.898682 
	C249.122009,298.090729 256.934357,305.885162 257.000580,316.836334 
	C257.066284,327.699982 249.487671,335.669861 237.366226,337.107727 
M237.729782,326.924957 
	C243.895386,325.400208 247.169815,321.748444 246.968109,316.621948 
	C246.760483,311.344330 243.117752,307.897430 236.242065,307.069763 
	C230.080368,308.616730 226.827103,312.255127 227.028229,317.374390 
	C227.235229,322.642700 230.872940,326.095856 237.729782,326.924957 
z"/>
<path fill="#4D241A" opacity="1.000000" stroke="none" 
	d="
M77.418762,337.094421 
	C72.287216,337.087891 67.625656,337.046265 62.964329,336.986450 
	C59.129810,336.937195 57.108765,335.015503 57.017914,331.148071 
	C56.994453,330.149261 57.000980,329.149689 57.000969,328.150452 
	C57.000278,272.358002 56.998016,216.565536 57.003067,160.773087 
	C57.003765,153.086639 58.050846,152.028168 65.533752,152.000168 
	C69.030998,151.987091 72.528229,151.971405 76.487076,151.909760 
	C80.779984,151.908493 84.611183,151.972977 88.442627,151.996277 
	C95.913589,152.041733 96.990883,153.122604 96.996567,160.787170 
	C97.007698,175.785339 96.999992,190.783524 96.999985,205.781693 
	C96.999954,246.610062 97.003807,287.438446 96.996277,328.266815 
	C96.994873,335.865692 95.884682,336.968842 88.386780,337.000244 
	C84.887466,337.014893 81.388161,337.034241 77.418762,337.094421 
M76.082260,162.023087 
	C73.148834,162.023087 70.215401,162.023087 67.292610,162.023087 
	C67.292610,217.305496 67.292610,272.009216 67.292610,326.833862 
	C70.718964,326.833862 73.854271,326.833862 77.899025,326.974030 
	C80.832619,326.974030 83.766212,326.974030 86.696945,326.974030 
	C86.696945,271.690186 86.696945,216.995224 86.696945,162.166153 
	C83.260300,162.166153 80.124985,162.166153 76.082260,162.023087 
z"/>
<path fill="#FCC66D" opacity="1.000000" stroke="none" 
	d="
M236.997040,271.974182 
	C235.344864,268.670166 232.978531,265.534668 232.152664,262.035645 
	C225.089874,232.112091 225.069458,202.105698 232.091782,172.165146 
	C232.907303,168.688080 234.872009,165.480530 236.652802,162.550934 
	C237.000107,199.293961 236.998566,235.634079 236.997040,271.974182 
z"/>
<path fill="#FCAF34" opacity="1.000000" stroke="none" 
	d="
M237.340332,271.898621 
	C236.998566,235.634079 237.000107,199.293961 237.000046,162.486542 
	C238.610580,165.167130 240.925323,168.146866 241.725128,171.489136 
	C248.960846,201.726044 248.917297,232.044205 241.801895,262.300232 
	C241.022583,265.614075 239.084335,268.655396 237.340332,271.898621 
z"/>
<path fill="#FAC46C" opacity="1.000000" stroke="none" 
	d="
M236.983337,126.825104 
	C230.872467,126.095451 227.235031,122.642220 227.028244,117.374100 
	C226.827301,112.255005 230.080261,108.616920 236.619843,107.579094 
	C236.993011,114.334038 236.988174,120.579575 236.983337,126.825104 
z"/>
<path fill="#FAAE33" opacity="1.000000" stroke="none" 
	d="
M237.355988,126.875122 
	C236.988174,120.579575 236.993011,114.334038 236.990555,107.631699 
	C243.117233,107.896904 246.760498,111.343964 246.968124,116.622002 
	C247.169800,121.748940 243.894974,125.400749 237.355988,126.875122 
z"/>
<path fill="#FAAE33" opacity="1.000000" stroke="none" 
	d="
M236.984299,307.174835 
	C243.117752,307.897430 246.760483,311.344330 246.968109,316.621948 
	C247.169815,321.748444 243.895386,325.400208 237.364075,326.418243 
	C236.993668,319.665955 236.988983,313.420410 236.984299,307.174835 
z"/>
<path fill="#FAC46C" opacity="1.000000" stroke="none" 
	d="
M236.613190,307.122314 
	C236.988983,313.420410 236.993668,319.665955 236.991272,326.368347 
	C230.872940,326.095856 227.235229,322.642700 227.028229,317.374390 
	C226.827103,312.255127 230.080368,308.616730 236.613190,307.122314 
z"/>
<path fill="#69BDFB" opacity="1.000000" stroke="none" 
	d="
M76.989670,162.166153 
	C80.124985,162.166153 83.260300,162.166153 86.696945,162.166153 
	C86.696945,216.995224 86.696945,271.690186 86.696945,326.974030 
	C83.766212,326.974030 80.832619,326.974030 77.446793,326.445984 
	C76.992920,271.333984 76.991295,216.750076 76.989670,162.166153 
z"/>
<path fill="#9CD3FC" opacity="1.000000" stroke="none" 
	d="
M76.535965,162.094620 
	C76.991295,216.750076 76.992920,271.333984 76.992065,326.375885 
	C73.854271,326.833862 70.718964,326.833862 67.292610,326.833862 
	C67.292610,272.009216 67.292610,217.305496 67.292610,162.023087 
	C70.215401,162.023087 73.148834,162.023087 76.535965,162.094620 
z"/>
</svg>